<svg width="16" height="16" viewBox="0 0 16 16" fill="none" xmlns="http://www.w3.org/2000/svg">
<path fill-rule="evenodd" clip-rule="evenodd" d="M9.5376 4.64505C10.5441 4.64505 11.3601 3.82908 11.3601 2.82253C11.3601 1.81597 10.5441 1 9.5376 1C8.53104 1 7.71507 1.81597 7.71507 2.82253C7.71507 3.82908 8.53104 4.64505 9.5376 4.64505ZM11.0248 12.0847H9.94622C9.79672 12.3766 9.57602 12.6827 9.28413 13.0031C8.99936 13.3234 8.76443 13.4836 8.57933 13.4836C8.4939 13.4836 8.42626 13.4622 8.37643 13.4195C8.33371 13.3768 8.31236 13.3163 8.31236 13.238C8.31236 13.117 8.40135 12.818 8.57933 12.341L9.81808 8.96644C10.11 8.16196 10.2559 7.57462 10.2559 7.20442C10.2559 6.69896 10.0922 6.30384 9.76468 6.01907C9.4372 5.72718 8.97801 5.58123 8.38711 5.58123C6.71409 5.58123 5.41838 6.57437 4.5 8.56064H5.52517C6.0164 7.63514 6.44355 7.17239 6.80664 7.17239C6.89207 7.17239 6.95258 7.19374 6.98818 7.23646C7.03089 7.27206 7.05225 7.33257 7.05225 7.418C7.05225 7.50343 7.00242 7.68853 6.90275 7.9733L5.62128 11.6575C5.34363 12.462 5.20481 13.0244 5.20481 13.3448C5.20481 13.893 5.37211 14.3059 5.70671 14.5835C6.04132 14.8612 6.53966 15 7.20175 15C8.83918 15 10.1135 14.0282 11.0248 12.0847Z" fill="#5D45DC"/>
</svg>