<?xml version="1.0" encoding="utf-8"?>
<!-- Generator: Adobe Illustrator 24.3.0, SVG Export Plug-In . SVG Version: 6.00 Build 0)  -->
<svg version="1.1" id="Layer_1" xmlns="http://www.w3.org/2000/svg" xmlns:xlink="http://www.w3.org/1999/xlink" x="0px" y="0px"
	 viewBox="0 0 542.5 145" style="enable-background:new 0 0 542.5 145;" xml:space="preserve">
<style type="text/css">
	.st0{fill:#FFFFFF;}
</style>
<path class="st0" d="M183.9,21.6c-19.7,0-35.7,16-35.7,37.4c0,21.3,15.9,37.3,35.5,37.3c10.1,0,19-5.1,24.6-12.8v11h11.3V59
	C219.5,38.1,204.1,21.6,183.9,21.6z M183.9,85.4c-13.2,0-24-11.4-24-26.4c0-14.9,10.8-26.6,24-26.6c13,0,24,11.9,24,26.6
	S197,85.4,183.9,85.4z M280.3,83.5v11c-16.7,1.9-28.2-7.9-28.2-25.9V2.5h11.6v65.7C263.8,80.7,271.5,83.9,280.3,83.5z M229.8,23.4
	h11.7v71.1h-11.7V23.4z M229.8,2.5h11.7v11.7h-11.7V2.5z M308.1,59c0,14.4,10.8,25.9,23.9,25.9c9.4,0,16.7-4.8,20.6-12.6h12.6
	C360.5,86.7,347.9,96,332.1,96c-19.6,0-35.6-16.6-35.6-37.1c0-20.6,16-37.4,35.6-37.4c15.9,0,28.3,9.4,33.1,23.7h-12.6
	c-4-7.7-11.3-12.6-20.6-12.6C318.9,32.8,308.1,44.7,308.1,59z M402.6,21.6c-20.1,0-35.7,16.8-35.7,37.5c0,20.4,15.6,37.1,35.7,37.1
	c20.3,0,35.7-16.7,35.7-37.1C438.4,38.5,422.9,21.6,402.6,21.6z M402.6,85c-13.1,0-23.9-11.6-23.9-25.8c0-14.5,10.8-26.4,23.9-26.4
	c13.3,0,24,11.9,24,26.4C426.6,73.4,415.9,85,402.6,85z M286.4,82.8h11.7v11.7h-11.7V82.8z M539.8,49v45.5h-11.7v-46
	c0-9.2-6.1-16.1-15.5-16.1c-9.4,0-15.5,6.9-15.5,16.1v46h-11.7v-46c0-9.2-6.1-16.1-15.5-16.1s-15.5,6.9-15.5,16.1v46h-11.7V21.6H470
	c9.7,0,17.1,4.6,21.3,11.7c4.3-7.2,11.7-11.7,21.4-11.7C528.8,21.6,539.8,33.5,539.8,49z"/>
<path class="st0" d="M107.6,2.5H2.5v91.4c0,8.2,5.6,15,13.1,17l0,0l126.9,31.7V37.5C142.6,18.2,126.9,2.5,107.6,2.5z M125.1,93.9
	h-17.6V53.8c0-3.9-1.3-13-12.9-13c-7.7,0-13.3,5.3-13.3,13v40.1H63.7V53.8c0-3.9-1.2-13-12.8-13c-7.9,0-13.3,5.3-13.3,13v40.1H20
	V23.6h30.9c9.3,0,16.9,3.7,21.8,9.7c5.2-6,12.9-9.7,21.8-9.7c19.2,0,30.5,12.7,30.5,30.6L125.1,93.9L125.1,93.9z"/>
</svg>
