<svg width="135" height="150" viewBox="0 0 135 150" fill="none" xmlns="http://www.w3.org/2000/svg">
<ellipse cx="67.2199" cy="76.5" rx="67.2199" ry="67.5" fill="#EEECFB"/>
<path d="M97.3269 150H36.2885C31.1586 150 27 145.821 27 140.667V9.33333C27 4.17867 31.1586 0 36.2885 0H97.3269C102.457 0 106.615 4.17867 106.615 9.33333V140.667C106.615 145.821 102.457 150 97.3269 150Z" fill="#6459D3"/>
<path d="M96.0001 3.33337H85.7164V6.66671C85.7164 7.77104 84.8254 8.66671 83.726 8.66671H49.8895C48.7901 8.66671 47.8991 7.77104 47.8991 6.66671V3.33337H37.6155C33.5849 3.33337 30.3174 6.61671 30.3174 10.6667V139.333C30.3174 143.383 33.5849 146.667 37.6155 146.667H96.0001C100.031 146.667 103.298 143.383 103.298 139.333V10.6667C103.298 6.61671 100.031 3.33337 96.0001 3.33337Z" fill="white"/>
<path d="M66.8077 101.667C81.4645 101.667 93.3462 89.7276 93.3462 75C93.3462 60.2724 81.4645 48.3334 66.8077 48.3334C52.151 48.3334 40.2693 60.2724 40.2693 75C40.2693 89.7276 52.151 101.667 66.8077 101.667Z" fill="#5848D5"/>
<path d="M66.8078 91.969C57.4798 91.969 49.9203 84.373 49.9203 75C49.9203 65.627 57.4798 58.031 66.8078 58.031C71.4696 58.031 75.6908 59.9307 78.7491 63.0014L85.5731 56.1444C80.77 51.318 74.134 48.3334 66.8078 48.3334C52.1506 48.3334 40.2693 60.272 40.2693 75C40.2693 89.728 52.1506 101.667 66.8078 101.667C74.1363 101.667 80.77 98.682 85.5751 93.858L78.7514 87.0014C75.6908 90.0697 71.4696 91.969 66.8078 91.969Z" fill="#A9A2E6"/>
<path d="M83.6951 75.0001H75.2502C75.2502 70.3157 71.4695 66.5144 66.8053 66.5144C62.1412 66.5144 58.3628 70.3134 58.3628 75.0001C58.3628 77.2821 59.2608 79.3514 60.7214 80.8791L60.7151 80.8854L71.1703 91.3911L71.1722 91.3931C78.3831 89.4594 83.6951 82.8541 83.6951 75.0001Z" fill="#232161"/>
<path d="M93.3442 75H83.6932C83.6932 82.854 78.3792 89.4593 71.1724 91.3933L78.625 98.882C87.3499 94.5133 93.3442 85.4603 93.3442 75Z" fill="#5848D5"/>
<path d="M88.521 72.5754H66.8069C65.4746 72.5754 64.3945 73.6604 64.3945 74.9994C64.3945 76.3381 65.4743 77.4234 66.8069 77.4234H88.5187C89.8509 77.4234 90.931 76.3384 90.931 74.9994C90.9333 73.6604 89.8532 72.5754 88.521 72.5754Z" fill="#A9A2E6"/>
<path opacity="0.5" d="M88.521 72.5754H66.8069C65.4746 72.5754 64.3945 73.6604 64.3945 74.9994C64.3945 76.3381 65.4743 77.4234 66.8069 77.4234H88.5187C89.8509 77.4234 90.931 76.3384 90.931 74.9994C90.9333 73.6604 89.8532 72.5754 88.521 72.5754Z" fill="#A9A2E6"/>
<path d="M45.0937 76.8181C46.0929 76.8181 46.903 76.0042 46.903 75.0001C46.903 73.9961 46.0929 73.1821 45.0937 73.1821C44.0945 73.1821 43.2844 73.9961 43.2844 75.0001C43.2844 76.0042 44.0945 76.8181 45.0937 76.8181Z" fill="white"/>
<path d="M66.8078 54.999C67.807 54.999 68.6171 54.1851 68.6171 53.181C68.6171 52.177 67.807 51.363 66.8078 51.363C65.8086 51.363 64.9985 52.177 64.9985 53.181C64.9985 54.1851 65.8086 54.999 66.8078 54.999Z" fill="white"/>
<path d="M66.8078 98.6348C67.807 98.6348 68.6171 97.8208 68.6171 96.8168C68.6171 95.8127 67.807 94.9988 66.8078 94.9988C65.8086 94.9988 64.9985 95.8127 64.9985 96.8168C64.9985 97.8208 65.8086 98.6348 66.8078 98.6348Z" fill="white"/>
<path d="M51.4277 61.3898C52.4269 61.3898 53.2369 60.5758 53.2369 59.5718C53.2369 58.5677 52.4269 57.7538 51.4277 57.7538C50.4284 57.7538 49.6184 58.5677 49.6184 59.5718C49.6184 60.5758 50.4284 61.3898 51.4277 61.3898Z" fill="white"/>
<path d="M51.4277 92.2724C52.4269 92.2724 53.2369 91.4584 53.2369 90.4544C53.2369 89.4503 52.4269 88.6364 51.4277 88.6364C50.4284 88.6364 49.6184 89.4503 49.6184 90.4544C49.6184 91.4584 50.4284 92.2724 51.4277 92.2724Z" fill="white"/>
<path d="M82.1879 92.2724C83.1872 92.2724 83.9972 91.4584 83.9972 90.4544C83.9972 89.4503 83.1872 88.6364 82.1879 88.6364C81.1887 88.6364 80.3787 89.4503 80.3787 90.4544C80.3787 91.4584 81.1887 92.2724 82.1879 92.2724Z" fill="white"/>
</svg>